<svg width="162" height="20" viewBox="0 0 162 20" fill="none" xmlns="http://www.w3.org/2000/svg">
<path d="M20.0351 2.584C18.5951 2.584 17.8751 2.952 17.8751 3.688V16.504C17.8751 17.24 18.5951 17.608 20.0351 17.608V19H11.9471V17.608C13.4511 17.608 14.2031 17.24 14.2031 16.504V10.528H6.06709V16.504C6.06709 17.24 6.81909 17.608 8.32309 17.608V19H0.259094V17.608C1.68309 17.608 2.39509 17.24 2.39509 16.504V3.688C2.39509 2.952 1.68309 2.584 0.259094 2.584V1.168H8.32309V2.584C6.81909 2.584 6.06709 2.952 6.06709 3.688V8.776H14.2031V3.688C14.2031 2.952 13.4511 2.584 11.9471 2.584V1.168H20.0351V2.584ZM37.6622 6.592L36.1742 6.688C35.9182 4.272 34.9102 3.064 33.1502 3.064H27.6062V9.4H30.5342C31.5102 9.4 32.0702 8.376 32.2142 6.328H33.6782L33.3182 14.296H31.9022C31.7262 12.2 31.2142 11.152 30.3662 11.152H27.6062V16.504C27.6062 17.24 28.5502 17.608 30.4382 17.608V19H21.7982V17.608C23.2222 17.608 23.9342 17.24 23.9342 16.504V3.688C23.9342 2.952 23.2222 2.584 21.7982 2.584V1.168H37.6622V6.592ZM67.4726 2.584C66.0326 2.584 65.3126 2.952 65.3126 3.688V16.504C65.3126 17.24 66.0326 17.608 67.4726 17.608V19H59.3846V17.608C60.8886 17.608 61.6406 17.24 61.6406 16.504V10.528H53.5046V16.504C53.5046 17.24 54.2566 17.608 55.7606 17.608V19H47.6966V17.608C49.1206 17.608 49.8326 17.24 49.8326 16.504V3.688C49.8326 2.952 49.1206 2.584 47.6966 2.584V1.168H55.7606V2.584C54.2566 2.584 53.5046 2.952 53.5046 3.688V8.776H61.6406V3.688C61.6406 2.952 60.8886 2.584 59.3846 2.584V1.168H67.4726V2.584ZM78.4997 0.783998C79.7797 0.783998 80.9637 0.943999 82.0517 1.264C83.1557 1.584 84.0997 2.112 84.8837 2.848C85.6837 3.568 86.3077 4.52 86.7557 5.704C87.2037 6.888 87.4277 8.344 87.4277 10.072C87.4277 11.496 87.2357 12.784 86.8517 13.936C86.4677 15.072 85.8917 16.048 85.1237 16.864C84.3557 17.664 83.3877 18.288 82.2197 18.736C81.0517 19.168 79.6917 19.384 78.1397 19.384C76.8757 19.384 75.6997 19.232 74.6117 18.928C73.5237 18.624 72.5797 18.12 71.7797 17.416C70.9957 16.712 70.3717 15.792 69.9077 14.656C69.4597 13.52 69.2357 12.12 69.2357 10.456C69.2357 8.968 69.4117 7.632 69.7637 6.448C70.1157 5.248 70.6677 4.232 71.4197 3.4C72.1717 2.552 73.1317 1.904 74.2997 1.456C75.4677 1.008 76.8677 0.783998 78.4997 0.783998ZM78.6197 2.776C77.6277 2.776 76.7717 2.928 76.0517 3.232C75.3317 3.52 74.7397 3.944 74.2757 4.504C73.8277 5.064 73.4917 5.752 73.2677 6.568C73.0597 7.384 72.9557 8.312 72.9557 9.352C72.9557 10.968 73.0757 12.296 73.3157 13.336C73.5557 14.36 73.8997 15.176 74.3477 15.784C74.7957 16.376 75.3397 16.792 75.9797 17.032C76.6197 17.256 77.3397 17.368 78.1397 17.368C79.1957 17.368 80.0837 17.216 80.8037 16.912C81.5237 16.592 82.0997 16.136 82.5317 15.544C82.9637 14.936 83.2757 14.192 83.4677 13.312C83.6597 12.416 83.7557 11.392 83.7557 10.24C83.7557 8.752 83.6277 7.528 83.3717 6.568C83.1317 5.608 82.7877 4.848 82.3397 4.288C81.8917 3.728 81.3477 3.336 80.7077 3.112C80.0837 2.888 79.3877 2.776 78.6197 2.776ZM107.18 8.512L105.668 8.584C105.604 7.512 105.484 6.624 105.308 5.92C105.148 5.2 104.924 4.632 104.636 4.216C104.364 3.784 104.028 3.488 103.628 3.328C103.228 3.152 102.756 3.064 102.212 3.064H100.052V16.504C100.052 17.24 100.772 17.608 102.212 17.608V19H94.2204V17.608C95.6444 17.608 96.3564 17.24 96.3564 16.504V3.064H94.1724C93.6284 3.064 93.1564 3.152 92.7564 3.328C92.3564 3.488 92.0124 3.784 91.7244 4.216C91.4524 4.632 91.2284 5.2 91.0524 5.92C90.8924 6.624 90.7804 7.512 90.7164 8.584L89.2044 8.512V1.168H107.18V8.512ZM124.875 6.592L123.195 6.688C123.003 4.272 121.979 3.064 120.123 3.064H114.747V8.848H117.483C118.443 8.848 118.995 7.88 119.139 5.944H120.651L120.291 13.432H118.827C118.667 11.448 118.163 10.456 117.315 10.456H114.747V17.128H119.259C121.947 17.128 123.435 15.416 123.723 11.992L125.451 12.16L124.875 19H108.939V17.608C110.363 17.608 111.075 17.24 111.075 16.504V3.688C111.075 2.952 110.363 2.584 108.939 2.584V1.168H124.875V6.592ZM135.926 2.584C134.15 2.584 133.262 2.952 133.262 3.688V17.128H137.966C138.574 17.128 139.118 17.048 139.598 16.888C140.078 16.712 140.494 16.432 140.846 16.048C141.198 15.648 141.478 15.12 141.686 14.464C141.91 13.808 142.062 12.984 142.142 11.992L143.726 12.16L143.15 19H127.454V17.608C128.878 17.608 129.59 17.24 129.59 16.504V3.688C129.59 2.952 128.878 2.584 127.454 2.584V1.168H135.926V2.584ZM160.117 7.408L158.509 7.624C158.413 6.792 158.197 6.072 157.861 5.464C157.525 4.856 157.101 4.352 156.589 3.952C156.077 3.552 155.485 3.256 154.813 3.064C154.141 2.872 153.413 2.776 152.629 2.776C151.445 2.776 150.485 2.976 149.749 3.376C149.029 3.776 148.669 4.424 148.669 5.32C148.669 5.864 148.845 6.296 149.197 6.616C149.549 6.92 150.013 7.176 150.589 7.384C151.165 7.576 151.821 7.736 152.557 7.864C153.309 7.992 154.069 8.136 154.837 8.296C155.605 8.44 156.357 8.632 157.093 8.872C157.845 9.096 158.509 9.416 159.085 9.832C159.661 10.232 160.125 10.752 160.477 11.392C160.829 12.016 161.005 12.808 161.005 13.768C161.005 14.728 160.837 15.56 160.501 16.264C160.181 16.968 159.717 17.552 159.109 18.016C158.501 18.48 157.773 18.824 156.925 19.048C156.077 19.272 155.133 19.384 154.093 19.384C153.037 19.384 152.117 19.264 151.333 19.024C150.565 18.8 149.877 18.488 149.269 18.088C148.981 17.896 148.709 17.8 148.453 17.8C148.341 17.8 148.165 17.92 147.925 18.16C147.685 18.384 147.501 18.664 147.373 19H145.765V12.424L147.349 12.28C147.413 13.048 147.613 13.744 147.949 14.368C148.285 14.992 148.725 15.528 149.269 15.976C149.829 16.408 150.493 16.752 151.261 17.008C152.029 17.248 152.877 17.368 153.805 17.368C155.165 17.368 156.205 17.104 156.925 16.576C157.645 16.032 158.005 15.184 158.005 14.032C158.005 13.664 157.893 13.352 157.669 13.096C157.445 12.84 157.141 12.632 156.757 12.472C156.373 12.296 155.933 12.152 155.437 12.04C154.941 11.928 154.413 11.832 153.853 11.752C153.293 11.656 152.725 11.56 152.149 11.464C151.589 11.368 151.045 11.248 150.517 11.104C149.797 10.912 149.149 10.68 148.573 10.408C147.997 10.12 147.509 9.768 147.109 9.352C146.725 8.936 146.421 8.432 146.197 7.84C145.989 7.248 145.885 6.544 145.885 5.728C145.885 5.104 145.989 4.496 146.197 3.904C146.405 3.312 146.749 2.784 147.229 2.32C147.725 1.856 148.365 1.488 149.149 1.216C149.933 0.927999 150.901 0.783998 152.053 0.783998C153.125 0.783998 154.029 0.887999 154.765 1.096C155.501 1.304 156.149 1.568 156.709 1.888C157.045 2.08 157.341 2.176 157.597 2.176C157.773 2.176 157.981 2.072 158.221 1.864C158.477 1.656 158.677 1.424 158.821 1.168H160.117V7.408Z" fill="black"/>
</svg>
